<svg width="32" height="32" viewBox="0 0 32 32" fill="none" xmlns="http://www.w3.org/2000/svg">
    <path d="M27.8899 5.57127C27.9103 5.59589 27.9302 5.61938 27.9494 5.644C29.5543 7.61875 29.9709 10.1999 29.2738 12.4829C28.8803 13.7707 28.1324 14.964 27.0434 15.8999C24.0151 18.5017 19.4899 18.1336 16.9074 15.0865C16.8942 15.0714 16.8815 15.0563 16.8683 15.0406C16.855 15.0249 16.8423 15.0098 16.8302 14.9942C14.2962 11.905 14.6864 7.31443 17.7142 4.71256C18.8032 3.77665 20.0862 3.22506 21.4022 3.04381C23.7356 2.72326 26.1749 3.56631 27.8282 5.49967C27.8486 5.52316 27.8684 5.54722 27.8888 5.57127H27.8899Z" fill="#334155"/>
    <path d="M30.9999 20.4496C30.1617 23.372 28.4962 26.0852 26.036 28.1993C22.5426 31.2011 18.1397 32.3989 13.9281 31.8853C12.7521 31.7421 11.5909 31.4652 10.4688 31.0574C9.94526 30.8666 9.42997 30.6479 8.9257 30.4001C9.67191 29.4272 10.1189 28.2826 10.2561 27.1028C10.2748 26.9479 10.2875 26.7912 10.2947 26.6352C10.3718 25.0117 9.86645 23.3553 8.75045 22.0166C7.63445 20.6779 6.10842 19.8986 4.51792 19.7078C4.36526 19.6888 4.21095 19.676 4.05719 19.6687C2.88773 19.6111 1.70229 19.8701 0.633685 20.4563C0.476067 19.9109 0.348761 19.3588 0.250112 18.8027C0.0390362 17.6117 -0.0375683 16.4033 0.0169917 15.2028C0.213738 10.9009 2.10515 6.69123 5.59864 3.68938C8.0588 1.57589 10.9698 0.356351 13.948 0C10.5316 5.01521 10.6854 11.9123 14.7278 16.8016C14.7399 16.8173 14.7532 16.833 14.7658 16.8481C14.7785 16.8632 14.7917 16.8788 14.805 16.894C18.8876 21.7481 25.5632 23.0414 31.0005 20.4496H30.9999Z" fill="#E9293B"/>
</svg>