<svg width="32" height="25" viewBox="0 0 32 25" fill="none" xmlns="http://www.w3.org/2000/svg">
<g clip-path="url(#clip0_22_237)">
<path d="M31.4816 10.2716C30.6969 9.74867 28.6354 9.52549 27.1369 9.92526C27.0564 8.44776 26.2859 7.20253 24.8779 6.11594L24.3568 5.7698L24.0094 6.28935C23.3266 7.31503 23.0386 8.6823 23.1405 9.92526C23.221 10.6912 23.4898 11.5516 24.0094 12.1762C22.059 13.2962 20.2605 13.0418 12.2973 13.0418H0.00271713C-0.03294 14.8218 0.255977 18.245 2.45529 21.0319C2.69849 21.3398 2.96455 21.6375 3.25392 21.9244C5.04226 23.6968 7.74421 24.9966 11.7844 25C17.9483 25.0057 23.229 21.7078 26.4416 13.7348C27.4985 13.7516 30.2891 13.9223 31.6548 11.3105C31.6882 11.2666 32.0023 10.6182 32.0023 10.6182L31.4816 10.2721V10.2716ZM8.02649 8.64412H4.56912V12.0659H8.02649V8.64412ZM12.4923 8.64412H9.03517V12.0659H12.4923V8.64412ZM16.9588 8.64412H13.5017V12.0659H16.9588V8.64412ZM21.4256 8.64412H17.9682V12.0659H21.4256V8.64412ZM3.55975 8.64412H0.102606V12.0659H3.55975V8.64412ZM8.02649 4.3223H4.56912V7.74412H8.02649V4.3223ZM12.4923 4.3223H9.03517V7.74412H12.4923V4.3223ZM16.9588 4.3223H13.5017V7.74412H16.9588V4.3223ZM16.9588 3.05176e-05H13.5017V3.42185H16.9588V3.05176e-05Z" fill="#1D63ED"/>
</g>
<defs>
<clipPath id="clip0_22_237">
<rect width="32" height="25" fill="white"/>
</clipPath>
</defs>
</svg>
