<svg width="26" height="28" viewBox="0 0 26 28" fill="none" xmlns="http://www.w3.org/2000/svg">
<g clip-path="url(#clip0_22_192)">
<path d="M25.9391 6.38835C25.9488 6.42545 25.9537 6.46371 25.9538 6.50214V12.4757C25.9538 12.5524 25.9343 12.6277 25.8974 12.694C25.8605 12.7604 25.8075 12.8154 25.7436 12.8535L20.9302 15.7401V21.4616C20.9302 21.6173 20.8507 21.7611 20.7211 21.8395L10.6734 27.8642C10.6504 27.8778 10.6253 27.8865 10.6002 27.8958C10.5908 27.899 10.5819 27.905 10.572 27.9077C10.5017 27.927 10.4279 27.927 10.3577 27.9077C10.3462 27.9045 10.3357 27.8979 10.3247 27.8936C10.3017 27.8849 10.2777 27.8773 10.2557 27.8642L0.210122 21.8395C0.146305 21.8013 0.09328 21.7462 0.0563904 21.6799C0.0195008 21.6136 5.05649e-05 21.5383 0 21.4616L0 3.54095C0 3.50175 0.00522692 3.46364 0.0146354 3.42662C0.0177715 3.4141 0.0250892 3.40266 0.0292708 3.39014C0.0371112 3.36727 0.0444288 3.34386 0.0559281 3.32263C0.0637685 3.30848 0.0752677 3.29704 0.0846762 3.28398C0.0966981 3.26655 0.107675 3.24859 0.121787 3.23334C0.133809 3.22082 0.14949 3.21157 0.16308 3.20068C0.178238 3.18761 0.191828 3.17345 0.209077 3.16311L5.23267 0.150744C5.29627 0.112623 5.36837 0.0925598 5.44175 0.0925598C5.51513 0.0925598 5.58722 0.112623 5.65083 0.150744L10.6739 3.16311H10.6749C10.6917 3.174 10.7058 3.18761 10.7209 3.20013C10.7345 3.21102 10.7497 3.22082 10.7617 3.2328C10.7763 3.24859 10.7868 3.26655 10.7993 3.28398C10.8082 3.29704 10.8203 3.30848 10.8276 3.32263C10.8396 3.34441 10.8464 3.36727 10.8548 3.39014C10.8589 3.40266 10.8663 3.4141 10.8694 3.42716C10.879 3.46426 10.8839 3.50252 10.884 3.54095V14.734L15.0697 12.2236V6.50159C15.0697 6.46348 15.075 6.42483 15.0844 6.38835C15.088 6.37529 15.0948 6.36385 15.099 6.35133C15.1074 6.32846 15.1147 6.30505 15.1262 6.28382C15.134 6.26966 15.1455 6.25823 15.1544 6.24516C15.167 6.22774 15.1774 6.20978 15.1921 6.19453C15.2041 6.18201 15.2192 6.17275 15.2328 6.16187C15.2485 6.1488 15.2621 6.13464 15.2788 6.1243L20.3029 3.11193C20.3665 3.07376 20.4386 3.05367 20.512 3.05367C20.5854 3.05367 20.6575 3.07376 20.7211 3.11193L25.7442 6.1243C25.7619 6.13519 25.7755 6.1488 25.7912 6.16132C25.8043 6.17221 25.8194 6.18201 25.8315 6.19399C25.8461 6.20978 25.8565 6.22774 25.8691 6.24516C25.8785 6.25823 25.89 6.26966 25.8973 6.28382C25.9093 6.30505 25.9161 6.32846 25.9245 6.35133C25.9292 6.36385 25.936 6.37529 25.9391 6.38835ZM25.1164 12.2236V7.25618L23.3586 8.31021L20.9302 9.76658V14.734L25.1169 12.2236H25.1164ZM20.0933 21.2095V16.2388L17.7046 17.6598L10.8835 21.7148V26.7323L20.0933 21.2095ZM0.837353 4.29499V21.2095L10.0461 26.7318V21.7153L5.23529 18.8794L5.23372 18.8783L5.23163 18.8772C5.21542 18.8674 5.20183 18.8532 5.18668 18.8412C5.17361 18.8304 5.15845 18.8216 5.14695 18.8097L5.14591 18.808C5.13232 18.7944 5.12291 18.7775 5.11141 18.7623C5.10095 18.7476 5.08841 18.7351 5.08005 18.7198L5.07952 18.7182C5.07012 18.7019 5.06437 18.6823 5.05757 18.6638C5.05078 18.6474 5.04189 18.6322 5.03771 18.6148C5.03248 18.5941 5.03144 18.5717 5.02935 18.5505C5.02725 18.5342 5.02307 18.5178 5.02307 18.5015V6.80539L2.59517 5.34848L0.837353 4.29499ZM5.44227 1.03164L1.25708 3.54095L5.44123 6.05026L9.6259 3.54041L5.44123 1.03164H5.44227ZM7.61876 16.6918L10.0467 15.236V4.29499L8.28885 5.34902L5.86043 6.80539V17.7464L7.61876 16.6918ZM20.512 3.99283L16.3273 6.50214L20.512 9.01145L24.6962 6.50159L20.512 3.99283ZM20.0933 9.76658L17.6649 8.31021L15.9071 7.25618V12.2236L18.335 13.6794L20.0933 14.734V9.76658ZM10.4643 20.9607L16.6023 17.3108L19.6705 15.487L15.4889 12.9793L10.6744 15.8664L6.28642 18.4977L10.4643 20.9607Z" fill="#FF2D20"/>
</g>
<defs>
<clipPath id="clip0_22_192">
<rect width="26" height="28" fill="white"/>
</clipPath>
</defs>
</svg>
