<svg width="28" height="28" viewBox="0 0 28 28" fill="none" xmlns="http://www.w3.org/2000/svg">
<path fill-rule="evenodd" clip-rule="evenodd" d="M23.7488 18.2759C23.3251 18.916 23.0037 19.7037 22.1432 19.7037C20.6942 19.7037 20.6163 17.4718 19.1662 17.4718C17.717 17.4718 17.7957 19.7037 16.3472 19.7037C14.898 19.7037 14.8203 17.4718 13.3702 17.4718C11.921 17.4718 11.9995 19.7037 10.5512 19.7037C9.10196 19.7037 9.0243 17.4718 7.57508 17.4718C6.12499 17.4718 6.20352 19.7037 4.7554 19.7037C4.29974 19.7037 3.98015 19.4832 3.71021 19.1809C2.67377 17.3786 2.07724 15.2664 2.07724 13.0078C2.07724 6.39673 7.18877 1.03735 13.494 1.03735C19.7995 1.03735 24.911 6.39673 24.911 13.008C24.911 14.898 24.4932 16.6865 23.7488 18.2759Z" fill="#FB70A9"/>
<path fill-rule="evenodd" clip-rule="evenodd" d="M8.93462 17.0943V22.0529C8.93462 22.9423 8.21253 23.6635 7.32221 23.6635C7.11055 23.6637 6.90093 23.6222 6.70532 23.5413C6.50972 23.4604 6.33197 23.3418 6.18223 23.1922C6.03249 23.0426 5.91369 22.865 5.83263 22.6694C5.75157 22.4739 5.70984 22.2643 5.70981 22.0527V16.0672C6.01059 15.5153 6.35403 15.0376 6.97418 15.0376C7.98262 15.0376 8.33547 16.3041 8.93462 17.0945V17.0943ZM15.0253 17.353V25.1939C15.0252 25.429 14.9789 25.6619 14.8888 25.8791C14.7988 26.0963 14.6669 26.2936 14.5006 26.4598C14.3343 26.6261 14.1368 26.7579 13.9196 26.8478C13.7023 26.9378 13.4695 26.984 13.2344 26.9839C12.245 26.9839 11.4426 26.1824 11.4426 25.1939V16.3192C11.7801 15.6689 12.1277 15.0374 12.8404 15.0374C13.9692 15.0374 14.2761 16.6215 15.0255 17.353H15.0253ZM20.7589 17.2087V22.9012C20.7589 23.7909 20.0371 24.5121 19.1467 24.5121C18.2562 24.5121 17.5341 23.7909 17.5341 22.9012V15.9047C17.8143 15.4245 18.1486 15.0374 18.7075 15.0374C19.7662 15.0374 20.102 16.433 20.7589 17.2087Z" fill="#4E56A6"/>
<path fill-rule="evenodd" clip-rule="evenodd" d="M8.93462 18.6143C8.64828 18.2639 8.30987 18.004 7.82031 18.004C6.65743 18.004 6.44371 19.4688 5.70981 20.1285V13.813C5.70984 13.6013 5.75157 13.3918 5.83261 13.1963C5.91366 13.0008 6.03243 12.8231 6.18215 12.6735C6.33187 12.5239 6.50959 12.4053 6.70517 12.3244C6.90075 12.2435 7.11035 12.202 7.322 12.2021C8.21253 12.2021 8.93462 12.9233 8.93462 13.813V18.6143ZM15.0253 18.727C14.7203 18.3212 14.364 18.0042 13.823 18.0042C12.5293 18.0042 12.4106 19.8166 11.4426 20.3182V17.5247C11.4426 16.536 12.245 15.7347 13.2344 15.7347C13.4695 15.7346 13.7024 15.7809 13.9197 15.8708C14.1369 15.9607 14.3344 16.0925 14.5007 16.2587C14.667 16.425 14.799 16.6223 14.889 16.8395C14.9791 17.0568 15.0254 17.2896 15.0255 17.5247L15.0253 18.727ZM20.7589 18.4135C20.5104 18.1692 20.2164 18.0042 19.826 18.0042C18.5725 18.0042 18.422 19.7055 17.5341 20.2668V14.5981C17.5341 14.1705 17.704 13.7603 18.0064 13.4579C18.3088 13.1556 18.7189 12.9857 19.1465 12.9857C19.5742 12.9857 19.9843 13.1556 20.2867 13.4579C20.5891 13.7603 20.7589 14.1705 20.7589 14.5981V18.4135Z" fill="black" fill-opacity="0.298"/>
<path fill-rule="evenodd" clip-rule="evenodd" d="M23.7488 18.2759C23.3251 18.916 23.0037 19.7037 22.1432 19.7037C20.6942 19.7037 20.6163 17.4718 19.1662 17.4718C17.717 17.4718 17.7957 19.7037 16.3472 19.7037C14.898 19.7037 14.8203 17.4718 13.3702 17.4718C11.921 17.4718 11.9995 19.7037 10.5512 19.7037C9.10196 19.7037 9.0243 17.4718 7.57508 17.4718C6.12499 17.4718 6.20352 19.7037 4.7554 19.7037C4.29974 19.7037 3.98015 19.4832 3.71021 19.1809C2.67377 17.3786 2.07724 15.2664 2.07724 13.0078C2.07724 6.39673 7.18877 1.03735 13.494 1.03735C19.7995 1.03735 24.911 6.39673 24.911 13.008C24.911 14.898 24.4932 16.6865 23.7488 18.2759Z" fill="#FB70A9"/>
<path fill-rule="evenodd" clip-rule="evenodd" d="M21.2785 19.4653C24.2701 15.0177 24.3471 10.0855 21.5101 4.66641C23.613 6.81979 24.911 9.77379 24.911 13.0336C24.911 14.917 24.4779 16.6977 23.7062 18.2818C23.2678 18.9184 22.9338 19.7037 22.0415 19.7037C21.7684 19.7063 21.5015 19.6229 21.2785 19.4653Z" fill="#E24CA6"/>
<path fill-rule="evenodd" clip-rule="evenodd" d="M12.8822 15.9944C16.8525 15.9944 18.5237 13.6931 18.5237 10.425C18.5237 7.15643 15.9978 4.14862 12.8822 4.14862C9.76608 4.14862 7.24017 7.15643 7.24017 10.4248C7.24017 13.6933 8.9112 15.9944 12.8822 15.9944Z" fill="white"/>
<path fill-rule="evenodd" clip-rule="evenodd" d="M13.4805 8.27665C13.4805 9.56509 12.5328 10.6103 11.3647 10.6103C10.1957 10.6103 9.24896 9.56531 9.24896 8.27665C9.24896 6.98821 10.1957 5.94302 11.3647 5.94302C12.5328 5.94302 13.4805 6.98799 13.4805 8.27665Z" fill="#030776"/>
<path fill-rule="evenodd" clip-rule="evenodd" d="M12.0698 7.73831C12.0698 8.33309 11.5964 8.815 11.0119 8.815C10.4274 8.815 9.95401 8.33309 9.95401 7.73831C9.95401 7.14353 10.4274 6.66162 11.0119 6.66162C11.5964 6.66162 12.0698 7.14353 12.0698 7.73831Z" fill="white"/>
</svg>
