<svg width="30" height="31" viewBox="0 0 30 31" fill="none" xmlns="http://www.w3.org/2000/svg">
<path d="M14.8581 0.0674489C13.6242 0.0731822 12.4461 0.178399 11.4101 0.361916C8.35506 0.901594 7.80058 2.03074 7.80058 4.11409V6.86496H15.0169V7.78174H7.80058H5.09277C2.99543 7.78174 1.15757 9.04251 0.584248 11.4397C-0.0784379 14.1879 -0.107777 15.9052 0.584248 18.7745C1.09728 20.9111 2.32252 22.4324 4.41986 22.4324H6.9013V19.1351C6.9013 16.753 8.9623 14.6508 11.4098 14.6508H18.6181C20.6247 14.6508 22.2276 12.9987 22.2276 10.9848V4.11301C22.2276 2.15725 20.5776 0.689222 18.6181 0.36084C17.3783 0.15447 16.092 0.0607199 14.8578 0.0663724L14.8581 0.0674489ZM10.9552 2.27972C11.7008 2.27972 12.3094 2.89853 12.3094 3.6592C12.3094 4.41717 11.7005 5.03033 10.9552 5.03033C10.2072 5.03033 9.60103 4.41744 9.60103 3.6592C9.60103 2.89853 10.2072 2.27972 10.9552 2.27972Z" fill="url(#paint0_linear_22_275)"/>
<path d="M23.1269 7.77957V10.9853C23.1269 13.47 21.0204 15.5612 18.6184 15.5612H11.4101C9.43551 15.5612 7.8006 17.251 7.8006 19.2272V26.099C7.8006 28.0547 9.50146 29.2052 11.4101 29.765C13.6945 30.4369 15.8863 30.5583 18.6184 29.765C20.4352 29.2391 22.2279 28.1802 22.2279 26.099V23.3481H15.0196V22.4313H22.2279H25.8374C27.9347 22.4313 28.7175 20.9684 29.4469 18.7734C30.2003 16.5127 30.1683 14.3375 29.4469 11.4386C28.9285 9.35069 27.9385 7.78065 25.8374 7.78065H23.1296L23.1269 7.77957ZM19.0733 25.1838C19.8213 25.1838 20.4274 25.7967 20.4274 26.555C20.4274 27.3156 19.8213 27.9344 19.0733 27.9344C18.3277 27.9344 17.7191 27.3156 17.7191 26.555C17.7191 25.797 18.3279 25.1838 19.0733 25.1838Z" fill="url(#paint1_linear_22_275)"/>
<defs>
<linearGradient id="paint0_linear_22_275" x1="0.0756931" y1="0.0668569" x2="16.7229" y2="14.2474" gradientUnits="userSpaceOnUse">
<stop stop-color="#5A9FD4"/>
<stop offset="1" stop-color="#306998"/>
</linearGradient>
<linearGradient id="paint1_linear_22_275" x1="18.903" y1="26.3327" x2="12.9214" y2="17.9635" gradientUnits="userSpaceOnUse">
<stop stop-color="#FFD43B"/>
<stop offset="1" stop-color="#FFE873"/>
</linearGradient>
</defs>
</svg>
