<svg width="34" height="25" viewBox="0 0 34 25" fill="none" xmlns="http://www.w3.org/2000/svg">
<g clip-path="url(#clip0_22_217)">
<path d="M29.258 14.3691C28.0725 14.3752 27.0422 14.6552 26.1795 15.0693C25.8629 14.4543 25.5464 13.9063 25.4906 13.5045C25.4285 13.0357 25.354 12.7495 25.4285 12.1893C25.503 11.6292 25.8381 10.8316 25.8319 10.7707C25.8257 10.7098 25.7574 10.4236 25.0747 10.4175C24.392 10.4115 23.8023 10.5454 23.7341 10.722C23.6658 10.8986 23.5355 11.3004 23.4486 11.7144C23.3306 12.3233 22.0831 14.4969 21.3693 15.6355C21.1397 15.191 20.9411 14.8014 20.8976 14.4909C20.8356 14.022 20.7611 13.7359 20.8356 13.1757C20.91 12.6156 21.2452 11.8179 21.239 11.7571C21.2328 11.6962 21.1645 11.41 20.4818 11.4039C19.7991 11.3978 19.2094 11.5318 19.1412 11.7083C19.0729 11.8849 18.9984 12.2989 18.8556 12.7008C18.7129 13.1026 17.0557 16.7315 16.6213 17.6691C16.3978 18.1501 16.2054 18.5337 16.0689 18.7955C16.0689 18.7955 16.0627 18.8138 16.044 18.8442C15.9261 19.0695 15.8578 19.1913 15.8578 19.1913C15.8578 19.1913 15.8578 19.1913 15.8578 19.1974C15.7647 19.3618 15.6654 19.514 15.6158 19.514C15.5785 19.514 15.5103 19.0756 15.6282 18.4789C15.8765 17.2186 16.4661 15.258 16.4599 15.1911C16.4599 15.1545 16.5716 14.8136 16.0751 14.637C15.591 14.4604 15.4172 14.7527 15.3737 14.7527C15.3303 14.7527 15.2992 14.8562 15.2992 14.8562C15.2992 14.8562 15.8392 12.6521 14.2689 12.6521C13.2883 12.6521 11.9352 13.7054 11.2649 14.6552C10.8429 14.8805 9.9429 15.3615 8.98087 15.8791C8.61468 16.08 8.23608 16.2809 7.8823 16.4697C7.85747 16.4453 7.83264 16.4149 7.80782 16.3905C5.90858 14.3995 2.39562 12.993 2.54458 10.3201C2.60044 9.34595 2.94181 6.78871 9.29121 3.6835C14.5172 1.15671 18.6757 1.8569 19.3956 3.40951C20.4259 5.62578 17.1674 9.74171 11.7677 10.3384C9.70705 10.5637 8.62709 9.78433 8.354 9.49207C8.0685 9.18764 8.02505 9.16938 7.91954 9.23026C7.74575 9.32159 7.85747 9.59558 7.91954 9.75389C8.08091 10.1679 8.74502 10.8986 9.86842 11.2578C10.8615 11.5744 13.2759 11.751 16.1992 10.6428C19.4701 9.40074 22.0272 5.94848 21.2762 3.05637C20.5252 0.121639 15.5599 -0.846456 10.8615 0.791391C8.0685 1.76558 5.03965 3.29992 2.86112 5.29699C0.27295 7.67157 -0.136689 9.73562 0.0308906 10.6002C0.632935 13.6689 4.94655 15.666 6.672 17.1455C6.58511 17.1942 6.50442 17.2368 6.43615 17.2734C5.57342 17.6935 2.2839 19.38 1.46463 21.164C0.533629 23.1854 1.61359 24.6345 2.32735 24.8294C4.54312 25.4322 6.82096 24.3484 8.04367 22.5583C9.26638 20.7683 9.11742 18.4424 8.55261 17.3769C8.54641 17.3647 8.5402 17.3525 8.52779 17.3403C8.75123 17.2125 8.98087 17.0785 9.20431 16.9507C9.64498 16.6949 10.0794 16.4575 10.4518 16.2627C10.2408 16.8289 10.0857 17.5047 10.0112 18.4789C9.91808 19.6236 10.396 21.1092 11.0229 21.6937C11.3022 21.9495 11.6311 21.9555 11.8421 21.9555C12.5745 21.9555 12.9035 21.3589 13.2697 20.6526C13.7165 19.788 14.12 18.7834 14.12 18.7834C14.12 18.7834 13.6172 21.4989 14.9827 21.4989C15.4792 21.4989 15.982 20.8657 16.2054 20.543C16.2054 20.5491 16.2054 20.5491 16.2054 20.5491C16.2054 20.5491 16.2178 20.5308 16.2426 20.4882C16.2923 20.409 16.3233 20.3603 16.3233 20.3603C16.3233 20.3603 16.3233 20.3542 16.3233 20.3481C16.5219 20.0072 16.9688 19.2339 17.6329 17.9492C18.4895 16.2931 19.3149 14.223 19.3149 14.223C19.3149 14.223 19.3894 14.7283 19.6439 15.5685C19.7928 16.0617 20.1032 16.6036 20.3514 17.1272C20.1528 17.4012 20.0287 17.5534 20.0287 17.5534C20.0287 17.5534 20.0287 17.5534 20.0349 17.5595C19.8735 17.7665 19.6997 17.9918 19.5073 18.211C18.8308 19.0025 18.024 19.9098 17.9122 20.1716C17.7819 20.4821 17.8129 20.7074 18.0612 20.89C18.2412 21.024 18.5639 21.0422 18.8929 21.024C19.5011 20.9814 19.9294 20.8352 20.1404 20.7439C20.4694 20.6282 20.8542 20.4516 21.2142 20.1898C21.8783 19.7088 22.2817 19.0208 22.2445 18.1136C22.2259 17.6143 22.0583 17.1151 21.8535 16.6462C21.9155 16.561 21.9714 16.4758 22.0334 16.3905C23.0824 14.8866 23.8954 13.2366 23.8954 13.2366C23.8954 13.2366 23.9699 13.742 24.2244 14.5822C24.3485 15.0084 24.603 15.4711 24.8264 15.9217C23.8396 16.7071 23.2313 17.6204 23.0141 18.2171C22.6231 19.3252 22.9272 19.8245 23.5044 19.9402C23.7651 19.995 24.1375 19.8732 24.4106 19.7575C24.7582 19.6479 25.1678 19.4592 25.5588 19.1791C26.2229 18.6981 26.8622 18.0284 26.825 17.1212C26.8064 16.7071 26.6946 16.2992 26.5395 15.9034C27.3774 15.5625 28.4573 15.3737 29.8352 15.532C32.7896 15.873 33.373 17.6813 33.2613 18.4424C33.1496 19.2035 32.5289 19.6175 32.3241 19.7454C32.1192 19.8732 32.051 19.9158 32.0696 20.0072C32.0944 20.1411 32.1937 20.135 32.3675 20.1107C32.6096 20.0681 33.9192 19.4957 33.975 18.0953C34.0681 16.3053 32.3303 14.3508 29.258 14.3691ZM6.46718 21.9068C5.48653 22.9541 4.12107 23.3498 3.53144 23.015C2.89836 22.6557 3.14663 21.1092 4.35072 20.0011C5.0831 19.3252 6.02651 18.6981 6.65338 18.3145C6.79613 18.2293 7.00716 18.1075 7.26163 17.9553C7.30508 17.9309 7.32991 17.9188 7.32991 17.9188C7.37956 17.8883 7.42921 17.8579 7.47887 17.8274C7.91954 19.4105 7.49749 20.8048 6.46718 21.9068ZM13.6048 17.1455C13.2635 17.9614 12.5497 20.0498 12.1152 19.9341C11.7428 19.8367 11.5132 18.2536 12.0407 16.6889C12.3076 15.9034 12.8724 14.9658 13.2014 14.6005C13.7352 14.0159 14.3248 13.8211 14.4675 14.0586C14.6475 14.3691 13.8158 16.6341 13.6048 17.1455ZM19.4949 19.9098C19.3522 19.9828 19.2156 20.0315 19.1536 19.995C19.1101 19.9706 19.2156 19.8732 19.2156 19.8732C19.2156 19.8732 19.9542 19.0939 20.2459 18.7407C20.4135 18.5337 20.6121 18.2902 20.8232 18.0162C20.8232 18.0405 20.8232 18.071 20.8232 18.0953C20.8232 19.0269 19.9046 19.654 19.4949 19.9098ZM24.0382 18.8929C23.9327 18.8199 23.9513 18.5763 24.3051 17.8153C24.4416 17.5169 24.7644 17.0176 25.3168 16.5366C25.3788 16.7315 25.4223 16.9202 25.4161 17.0968C25.4099 18.2719 24.5533 18.7103 24.0382 18.8929Z" fill="#CD6799"/>
</g>
<defs>
<clipPath id="clip0_22_217">
<rect width="34" height="25" fill="white"/>
</clipPath>
</defs>
</svg>
