<svg width="30" height="18" viewBox="0 0 30 18" fill="none" xmlns="http://www.w3.org/2000/svg">
<g clip-path="url(#clip0_22_226)">
<mask id="mask0_22_226" style="mask-type:luminance" maskUnits="userSpaceOnUse" x="0" y="0" width="30" height="18">
<path d="M0 3.05176e-05H30V17.6728H0V3.05176e-05Z" fill="white"/>
</mask>
<g mask="url(#mask0_22_226)">
<path fill-rule="evenodd" clip-rule="evenodd" d="M15 3.05176e-05C11 3.05176e-05 8.5 1.96367 7.5 5.89094C9 3.9273 10.75 3.19094 12.75 3.68185C13.8911 3.96167 14.7067 4.77494 15.6094 5.67439C17.08 7.14003 18.7822 8.83639 22.5 8.83639C26.5 8.83639 29 6.87276 30 2.94548C28.5 4.90912 26.75 5.64548 24.75 5.15458C23.6089 4.87476 22.7933 4.06148 21.8906 3.16203C20.42 1.69639 18.7178 3.05176e-05 15 3.05176e-05ZM7.5 8.83639C3.5 8.83639 1 10.8 0 14.7273C1.5 12.7637 3.25 12.0273 5.25 12.5182C6.39111 12.7986 7.20667 13.6113 8.10944 14.5108C9.58 15.9764 11.2822 17.6728 15 17.6728C19 17.6728 21.5 15.7091 22.5 11.7818C21 13.7455 19.25 14.4818 17.25 13.9909C16.1089 13.7111 15.2933 12.8978 14.3906 11.9984C12.92 10.5328 11.2178 8.83639 7.5 8.83639Z" fill="#38BDF8"/>
</g>
</g>
<defs>
<clipPath id="clip0_22_226">
<rect width="30" height="18" fill="white"/>
</clipPath>
</defs>
</svg>
